<?xml version="1.0" encoding="utf-8" ?><svg xmlns="http://www.w3.org/2000/svg" xmlns:xlink="http://www.w3.org/1999/xlink" width="1024" height="1024" viewBox="0 0 1024 1024"><path fill="#1E2551" d="M465.848 78.1002C473.659 76.0237 487.228 74.4786 495.383 73.8772C542.879 70.3745 592.293 80.6442 633.669 104.474C664.536 122.25 696.693 150.328 715.221 181.067C718.265 185.794 721.141 190.628 723.843 195.558C746.66 237.956 751.316 280.097 766.848 324.428C776.465 351.881 792.934 379.492 805.7 405.558C844.695 478.795 873.865 560.504 870.269 644.534C870.04 649.9 869.055 656.204 869.116 661.43C865.864 692.462 859.728 722.379 847.731 751.308C844.273 759.837 841.494 766.286 837.202 774.501C831.042 786.079 824.187 797.273 816.675 808.022L815.447 809.85L814.447 811.229C812.725 813.693 811.35 815.816 809.276 818.011C814.89 824.092 820.123 828.828 824.754 835.872C838.911 857.402 827.612 871.663 810.994 886.266C799.023 894.66 787.969 901.812 774.567 908.058C709.734 938.276 627.047 951.157 555.754 954.564C462.4 959.026 357.569 950.046 270.283 915.573C250.645 907.179 230.122 898.023 214.164 883.515C185.491 857.448 199.182 838.407 220.902 815.638C219.148 812.364 213.494 804.309 211.223 800.816C206.05 792.874 201.284 784.675 196.942 776.25C170.173 724.439 162.057 667.341 166.555 609.732C166.373 604.538 169.095 584.825 170.22 579.15C170.733 574.614 171.983 568.545 172.79 563.938C174.212 556.616 176.146 546.608 178.159 539.615C178.865 536.43 179.759 533.141 180.574 529.97C182.612 520.263 190.436 496.178 194.036 487.006C207.004 450.683 224.215 417.079 242.775 383.417C248.644 372.771 254.178 360.686 260.173 350.376C260.187 350.272 271.503 322.515 272.523 319.942C273.964 315.613 275.329 311.26 276.617 306.884C277.418 302.066 281.13 290.825 282.481 285.376C287.27 266.065 292.241 246.304 299.123 227.628C308.39 200.742 326.318 168.42 346.314 147.959C347.001 146.384 352.792 140.531 354.291 139.057C372.02 121.622 395.119 104.054 417.992 94.1612C420.651 92.664 425.551 90.7137 428.511 89.439C440.591 84.5483 453.087 80.7534 465.848 78.1002Z"/><path fill="#E2E1E6" d="M220.902 815.638C228.821 826.081 242.149 841.215 252.325 849.282C265.074 861.394 294.124 880.492 309.887 888.155C351.878 910.708 402.19 925.717 449.267 932.261C456.89 933.321 467.498 934.803 475.162 935.166C476.566 935.683 486.858 936.099 489.202 936.214C524.676 938.008 560.239 935.894 595.25 929.91C660.726 918.243 719.75 896.426 772.452 854.817C783.888 845.789 799.544 831.447 807.842 819.565L809.276 818.011C814.89 824.092 820.123 828.828 824.754 835.872C838.911 857.402 827.612 871.663 810.994 886.266C799.023 894.66 787.969 901.812 774.567 908.058C709.734 938.276 627.047 951.157 555.754 954.564C462.4 959.026 357.569 950.046 270.283 915.573C250.645 907.179 230.122 898.023 214.164 883.515C185.491 857.448 199.182 838.407 220.902 815.638Z"/><path fill="#070815" d="M465.848 78.1002C473.659 76.0237 487.228 74.4786 495.383 73.8772C542.879 70.3745 592.293 80.6442 633.669 104.474C664.536 122.25 696.693 150.328 715.221 181.067C718.265 185.794 721.141 190.628 723.843 195.558C746.66 237.956 751.316 280.097 766.848 324.428C776.465 351.881 792.934 379.492 805.7 405.558C844.695 478.795 873.865 560.504 870.269 644.534C870.04 649.9 869.055 656.204 869.116 661.43C865.864 692.462 859.728 722.379 847.731 751.308C844.273 759.837 841.494 766.286 837.202 774.501C831.042 786.079 824.187 797.273 816.675 808.022L815.447 809.85L814.447 811.229C812.725 813.693 811.35 815.816 809.276 818.011L807.842 819.565C806.75 818.175 809.275 815.693 810.362 814.233C820.341 800.708 829.198 786.389 836.843 771.42C857.433 730.967 867.685 683.05 868.921 637.849C870.883 566.161 847.195 492.13 815.452 428.612C798.922 395.534 780.991 363.578 767.048 329.359C758.013 307.187 753.87 285.976 747.804 263.11C736.71 221.603 720.373 183.932 690.909 151.937C638.538 95.0657 561.852 67.2318 485.14 76.2906C479.955 76.9028 470.998 79.1164 466.365 78.9871L465.848 78.1002Z"/><path fill="#070815" d="M166.555 609.732L167.593 609.922C168.327 612.246 166.654 636.856 166.666 641.713C166.839 709.833 190 775.509 232.775 828.526C235.988 832.51 252.062 845.822 252.325 849.282C242.149 841.215 228.821 826.081 220.902 815.638C219.148 812.364 213.494 804.309 211.223 800.816C206.05 792.874 201.284 784.675 196.942 776.25C170.173 724.439 162.057 667.341 166.555 609.732Z"/><path fill="#070815" d="M194.036 487.006C207.004 450.683 224.215 417.079 242.775 383.417C248.644 372.771 254.178 360.686 260.173 350.376C261.099 353.295 256.885 360.367 255.234 363.473C241.478 389.35 227.39 414.632 214.809 441.143C210.695 449.768 206.878 458.531 203.363 467.417C202.169 470.398 196.385 486.01 195.085 487.76L194.476 487.76L194.036 487.006Z"/><path fill="#070815" d="M309.887 888.155C313.705 887.705 338.52 901.154 344.063 902.989C350.751 905.204 359.184 908.405 366.016 910.802C391.292 919.482 417.257 926.005 443.634 930.303C449.562 931.295 455.517 932.119 461.492 932.774C465.136 933.143 472.556 933.534 475.711 934.331L475.841 934.891L475.162 935.166C467.498 934.803 456.89 933.321 449.267 932.261C402.19 925.717 351.878 910.708 309.887 888.155Z"/><path fill="#070815" d="M299.123 227.628C308.39 200.742 326.318 168.42 346.314 147.959C345.788 152.113 336.074 162.144 333.25 166.098C324.305 178.619 316.651 191.319 310.09 205.235C308.125 209.402 301.816 226.126 300.189 228.277L299.49 228.167L299.123 227.628Z"/><path fill="#070815" d="M172.79 563.938C173.55 564.7 173.896 564.709 173.792 566.004C173.574 568.697 172.607 578.186 170.903 579.929L170.22 579.15C170.733 574.614 171.983 568.545 172.79 563.938Z"/><path fill="#070815" d="M276.617 306.884C277.947 309.718 275.423 317.892 273.463 320.199L272.523 319.942C273.964 315.613 275.329 311.26 276.617 306.884Z"/><path fill="#070815" d="M180.574 529.97L181.583 530.456C181.866 533.33 180.672 536.766 179.624 539.418L178.949 539.942L178.159 539.615C178.865 536.43 179.759 533.141 180.574 529.97Z"/><path fill="#070815" d="M428.511 89.439L428.425 90.628C426.291 92.1985 421.016 94.8287 418.437 94.5042L417.992 94.1612C420.651 92.664 425.551 90.7137 428.511 89.439Z"/><path fill="#5E6698" d="M383.021 136.82C384.013 132.723 401.688 121.513 406.203 118.779C505.232 58.8109 644.137 94.1107 703.62 193.18C716.443 214.536 724.87 236.839 731.656 260.756C739.184 289.516 745.597 315.953 756.835 343.595C769.396 374.491 785.21 403.163 800.95 432.522C820.279 470.728 836.394 512.166 845.318 554.108C846.616 560.206 850.143 575.241 848.847 580.461C847.908 576.244 847.898 571.881 847.135 568.186C845.144 558.537 842.086 540.182 838.334 531.114L838.252 531.586C837.663 534.818 835.076 542.926 835.01 545.075L835.591 545.241C836.914 542.431 836.995 538.01 838.426 534.895L839.015 534.894C838.978 534.838 843.464 553.875 843.732 555.751C846.755 576.895 853.733 602.967 847.915 623.911C847.291 626.158 839.292 636.104 839.505 637.386C842.208 635.818 848.499 624.552 849.65 620.816C849.92 619.376 849.956 617.739 850.755 616.807C850.926 618.409 851.02 619.409 851.023 621.015C851.07 634.655 850.846 648.036 849.496 661.623C849.281 663.783 849.009 666.262 849.051 668.412C850.309 672.088 849.861 675.538 849.27 679.31C844.701 708.486 834.359 739.375 821.024 765.707C819.896 765.927 820.485 765.921 819.211 765.254C798.007 803.117 770.859 833.52 733.806 856.902C731.294 858.487 721.644 863.933 719.876 865.624C719.057 868.938 708.958 873.537 705.515 874.182C704.751 874.265 704.085 875.097 703.565 875.627C701.462 877.774 698.496 878.597 695.833 879.831C647.723 902.117 595.288 913.205 542.544 916.535C537.365 916.862 532.088 917.041 526.978 916.001C524.875 915.661 521.279 915.848 519.043 915.902C504.007 916.263 489.146 915.181 474.142 914.119C469.446 915.325 459.23 914.933 455.388 913.224L455.432 912.313C454.512 911.958 448.066 911.264 446.654 911.092C444.233 912.942 437.905 911.176 434.818 910.626C411.79 906.646 389.117 900.83 367.017 893.234C360.771 891.051 328.103 878.472 326.067 874.264C316.957 869.255 306.313 862.696 297.548 858.128L296.974 858.579C290.612 856.947 285.715 851.795 280.906 847.711L280.905 846.917C279.942 846.623 278.593 846.701 277.838 846.193C269.565 840.556 262.641 833.291 255.456 826.365C225.946 797.919 206.18 761.799 194.577 722.724C189.06 704.143 185.562 690.614 186.358 670.994C186.513 669.182 185.915 660.411 185.766 658.268C185.208 650.229 184.923 643.113 184.953 635.063C184.53 632.705 184.553 628.151 184.189 625.16C183.855 624.47 183.951 624.042 183.833 623.274C182.556 614.996 186.73 565.116 191.52 562.113C192.638 560.065 196.42 542.016 197.574 538.037C206.698 501.321 220.037 465.783 237.325 432.13C245.342 416.484 255.013 400.423 262.678 385.008C262.569 384.72 262.158 383.523 262.255 383.323C273.964 359.086 286.714 335.605 292.604 308.954C293.463 305.067 295.293 297.362 298.214 294.643C299.173 292.33 300.718 285.453 301.367 282.829C303.127 275.619 304.981 268.432 306.928 261.27C315.731 229.626 327.06 201.969 346.165 175.024L345.825 173.806C348.032 169.607 352.572 163.271 356.678 160.933L357.488 161.194C360.761 158.115 363.903 154.468 367.148 151.25C372.272 146.259 377.566 141.446 383.021 136.82Z"/><path fill="#394067" d="M479.603 115.788C482.971 114.696 491.385 113.794 495.054 113.481C519.63 111.389 544.382 113.549 568.224 119.866C571.413 120.687 577.958 122.303 580.611 123.732C582.935 124.538 585.847 125.463 588.094 126.34C599.203 129.313 633.172 148.195 639.603 157.539C643.133 160.498 649.45 166.076 651.88 170.023C652.035 171.089 664.294 186.307 666.521 190.098C683.844 219.578 696.548 257.634 685.735 291.513C685.603 291.927 686.235 292.329 686.442 292.496C684.542 297.303 685.398 297.469 688.365 301.416L695.836 308.979C697.092 310.105 697.3 310.275 698.379 311.664C700.359 313.716 702.447 315.809 704.327 317.94C707.544 320.978 713.803 328.299 716.268 331.993C718.659 334.993 728.624 347.239 729.702 350.382C733.401 354.152 742.297 369.027 744.665 373.955C746.342 377.077 748.825 381.371 750.259 384.493L750.935 385.521C752.539 388.625 758.391 399.527 759.022 402.357C759.997 403.13 768.015 419.061 768.198 420.405C774.302 434.506 778.682 448.127 784.28 461.987L784.761 462.951C786.48 465.972 787.09 466.796 789.314 469.447C791.37 471.381 796.568 477.356 797.563 479.846C802.519 486.861 803.938 490.267 806.218 498.567C810.102 509.229 807.243 522.567 802.762 532.664C789.56 562.413 746.7 583.168 717.326 593.77C659.716 614.563 590.449 619.725 529.269 619.487C522.01 619.459 500.203 619.55 493.894 618.532C489.302 618.58 483.866 618.145 479.222 617.888C470.487 617.984 456.036 616.004 447.115 615.207C441.645 614.718 429.039 613.39 424.036 612.211C407.565 610.099 391.239 606.981 375.149 602.874C367.598 600.941 359.338 598.148 351.99 596.415C342.609 594.203 338.061 594.2 328.459 591.007L330.149 592.23L330.215 593.005C326.339 593.431 326.604 591.62 323.142 593.02C321.233 591.383 316.718 588.624 314.455 587.2L312.323 586.521C310.787 584.201 309.668 584.186 306.993 583.176C304.489 582.48 301.914 581.553 299.443 580.717C287.538 577.121 278.035 572.745 266.74 567.607C251.407 560.941 237.213 549.573 229.383 534.592C230.224 531.363 227.151 524.921 226.776 520.33C226.088 511.909 227.765 504.468 230.834 496.618C231.806 494.131 232.19 493.364 231.261 491.375C232.408 485.224 245.894 468.028 249.482 462.044C251.48 458.711 253.369 452.401 254.712 448.531C258.746 433.896 265.251 419.144 271.201 405.134C271.675 402.529 279.226 386.884 280.543 384.157C293.825 356.672 310.073 332.289 330.852 309.919C335.618 304.788 341.052 300.302 345.923 295.287C347.632 293.527 347.807 293.195 347.771 291.087C349.119 288.61 345.794 279.828 345.59 276.165C345.178 268.77 345.938 263.7 344.613 256.324C344.753 251.845 346.616 240.821 348.261 236.579C350.784 225.095 354.589 216.026 359.258 205.352C360.046 202.469 365.671 193.236 367.466 190.417C382.818 166.316 405.456 144.995 430.907 131.925C445.112 124.192 463.868 118.501 479.603 115.788Z"/><path fill="#070815" d="M306.993 583.176C310.332 582.241 329.789 590.607 334.862 591.526C356.133 595.382 376.337 602.447 397.59 606.612C405.612 608.185 416.242 608.996 423.721 611.066L424.174 611.625L424.036 612.211C407.565 610.099 391.239 606.981 375.149 602.874C367.598 600.941 359.338 598.148 351.99 596.415C342.609 594.203 338.061 594.2 328.459 591.007L330.149 592.23L330.215 593.005C326.339 593.431 326.604 591.62 323.142 593.02C321.233 591.383 316.718 588.624 314.455 587.2L312.323 586.521C310.787 584.201 309.668 584.186 306.993 583.176Z"/><path fill="#716F9B" d="M314.455 587.2C321.28 588.588 321.59 588.543 328.459 591.007L330.149 592.23L330.215 593.005C326.339 593.431 326.604 591.62 323.142 593.02C321.233 591.383 316.718 588.624 314.455 587.2Z"/><path fill="#070815" d="M784.28 461.987C783.201 460.952 783.49 461.061 782.16 460.713C780.462 460.27 780.907 457.346 780.197 455.626C777.237 448.466 774.724 441.069 771.899 433.844C770.925 431.3 767.764 423.881 767.284 421.672L768.198 420.405C774.302 434.506 778.682 448.127 784.28 461.987Z"/><path fill="#070815" d="M271.201 405.134L272.135 406.138C271.926 409.793 263.634 425.228 262.246 429.927C260.436 436.053 256.586 444.73 255.889 450.986L255.594 451.371C255.488 448.261 257.249 450.498 255.811 448.443C255.445 448.472 255.078 448.501 254.712 448.531C258.746 433.896 265.251 419.144 271.201 405.134Z"/><path fill="#070815" d="M479.603 115.788C479.29 116.548 479.351 117.089 478.532 117.227C462.659 119.906 447.905 125.591 433.124 131.784C432.297 132.13 431.76 132.148 430.907 131.925C445.112 124.192 463.868 118.501 479.603 115.788Z"/><path fill="#070815" d="M266.74 567.607L267.812 566.543L267.597 566.441C270.629 566.556 275.722 570.274 278.577 571.869C282.675 574.158 297.818 577.153 299.443 580.717C287.538 577.121 278.035 572.745 266.74 567.607Z"/><path fill="#070815" d="M359.258 205.352C359.409 205.991 359.921 208.046 359.655 208.573C355.275 217.253 352.374 226.455 349.638 235.75C349.44 236.421 348.781 236.449 348.261 236.579C350.784 225.095 354.589 216.026 359.258 205.352Z"/><path fill="#070815" d="M806.218 498.567C805.356 498.742 805.802 498.791 804.914 498.233C802.964 492.76 800.424 487.027 797.776 481.84C797.187 480.686 797.423 481.21 797.563 479.846C802.519 486.861 803.938 490.267 806.218 498.567Z"/><path fill="#070815" d="M729.702 350.382L728.74 350.137C726.145 346.756 716.506 335.361 716.268 331.993C718.659 334.993 728.624 347.239 729.702 350.382Z"/><path fill="#070815" d="M759.022 402.357L758.632 402.584C756.289 400.228 751.764 389.56 750.357 386.303L750.935 385.521C752.539 388.625 758.391 399.527 759.022 402.357Z"/><path fill="#171836" d="M479.222 617.888C486.16 616.694 489.281 616.838 496.44 617.728L496.708 618.268L497.519 618.006L497.466 618.216L497.164 617.908L496.663 618.379L493.894 618.532C489.302 618.58 483.866 618.145 479.222 617.888Z"/><path fill="#070815" d="M639.603 157.539C643.133 160.498 649.45 166.076 651.88 170.023C649.773 169.079 640.318 159.682 639.603 157.539Z"/><path fill="#070815" d="M750.259 384.493C747.892 383.194 744.748 376.852 743.881 374.326L744.665 373.955C746.342 377.077 748.825 381.371 750.259 384.493Z"/><path fill="#070815" d="M695.836 308.979L694.696 308.824C692.244 306.959 689.781 304.629 687.938 302.158L688.365 301.416L695.836 308.979Z"/><path fill="#070815" d="M704.327 317.94L702.858 317.664C700.37 315.578 700.029 315.171 698.205 312.478L698.379 311.664C700.359 313.716 702.447 315.809 704.327 317.94Z"/><path fill="#070815" d="M789.314 469.447L787.86 469.174C786.184 467.399 784.608 465.709 783.946 463.347L784.761 462.951C786.48 465.972 787.09 466.796 789.314 469.447Z"/><path fill="#070815" d="M580.611 123.732C582.935 124.538 585.847 125.463 588.094 126.34C585.856 126.847 581.487 126.284 580.611 123.732Z"/><path fill="#FEFEFE" d="M354.511 314.336C357.658 311.21 362 307.826 365.62 305.146C423.12 262.566 493.792 255.299 562.761 264.818C563.267 264.563 563.774 264.307 564.28 264.051C578.601 265.634 595.983 270.742 609.455 275.219C614.988 277.058 625.864 281.394 629.148 283.42L629.564 284.863C634.326 287.644 639.862 289.977 644.791 292.735C657.006 299.704 668.42 307.993 678.826 317.452L677.651 315.039L678.018 314.724C680.303 316.679 692.09 327.813 692.453 329.88C691.067 329.083 690.831 328.81 689.656 327.773L690.272 329.356C693.873 331.937 699.894 340.32 702.874 344.184C728.448 377.344 749.058 418.171 758.484 458.974C762.588 476.739 731.958 502.331 715.495 504.207C704.332 505.479 696.682 499.157 687.214 494.421C677.185 489.519 666.571 484.515 655.791 481.562C650.901 479.703 645.021 478.281 640.436 476.262C623.408 471.431 598.846 465.328 581.187 463.169C578.881 464.902 561.606 462.237 559.537 460.798L560.348 460.294C559.418 459.979 552.275 459.38 550.961 459.283C531.333 457.828 503.83 456.272 484.609 459.265L485.788 459.923C485.417 460.308 467.041 462.966 465.997 462.851C458.316 462.003 397.248 477.681 394.849 476.707L392.485 477.266C389.942 478.675 379.348 482.253 376.51 482.784C372.589 484.108 362.766 487.275 359.521 489.212L359.532 490.059C357.011 491.294 354.924 492.452 352.207 493.191C351.497 492.752 351.672 493.043 351.491 492.469C340.798 496.648 334.343 505.873 321.51 504.149C298.261 501.026 272.846 475.539 277.027 451.096C284.61 406.769 319.503 342.161 354.511 314.336Z"/><path fill="#A3E8F3" d="M354.511 314.336C357.658 311.21 362 307.826 365.62 305.146C423.12 262.566 493.792 255.299 562.761 264.818C563.267 264.563 563.774 264.307 564.28 264.051C578.601 265.634 595.983 270.742 609.455 275.219C614.988 277.058 625.864 281.394 629.148 283.42L629.564 284.863C634.326 287.644 639.862 289.977 644.791 292.735C657.006 299.704 668.42 307.993 678.826 317.452L677.651 315.039L678.018 314.724C680.303 316.679 692.09 327.813 692.453 329.88C691.067 329.083 690.831 328.81 689.656 327.773L690.272 329.356C693.873 331.937 699.894 340.32 702.874 344.184C728.448 377.344 749.058 418.171 758.484 458.974C762.588 476.739 731.958 502.331 715.495 504.207C704.332 505.479 696.682 499.157 687.214 494.421C677.185 489.519 666.571 484.515 655.791 481.562C650.901 479.703 645.021 478.281 640.436 476.262C642.199 475.086 643.534 474.269 645.387 473.243L646.57 472.415C664.114 460.012 673.518 447.35 677.214 425.941C677.953 417.868 677.8 413.942 677.191 406.007C667.916 352.496 618.305 321.842 569.424 309.21C559.035 307.421 549.274 305.272 538.759 304.281C492.304 299.9 443.563 308.167 404.933 335.629C374.69 357.128 354.754 384.195 355.37 422.417C356.928 440.543 364.377 456.655 378.4 468.525C379.55 469.494 380.711 470.45 381.882 471.393C384.864 473.185 389.404 476.071 392.485 477.266C389.942 478.675 379.348 482.253 376.51 482.784C372.589 484.108 362.766 487.275 359.521 489.212L359.532 490.059C357.011 491.294 354.924 492.452 352.207 493.191C351.497 492.752 351.672 493.043 351.491 492.469C340.798 496.648 334.343 505.873 321.51 504.149C298.261 501.026 272.846 475.539 277.027 451.096C284.61 406.769 319.503 342.161 354.511 314.336Z"/><path fill="#5E6698" d="M345.857 432.144C345.295 430.883 344.666 425.195 344.616 423.675C343.698 395.604 354.029 370.903 372.291 350.185C403.521 314.755 449.663 295.659 496.139 292.419C542.587 289.181 589.597 297.007 629.126 322.641C638.364 328.631 645.597 334.728 653.861 341.916C660.995 349.975 672.971 362.356 676.796 372.408C676.729 375.164 681.354 385.175 682.598 388.468C685.561 396.31 686.405 402.908 687.183 411.202C687.417 413.689 687.223 423.061 687.878 424.586C686.542 447.074 673.808 468.367 655.791 481.562C650.901 479.703 645.021 478.281 640.436 476.262C642.199 475.086 643.534 474.269 645.387 473.243L646.57 472.415C664.114 460.012 673.518 447.35 677.214 425.941C677.953 417.868 677.8 413.942 677.191 406.007C667.916 352.496 618.305 321.842 569.424 309.21C559.035 307.421 549.274 305.272 538.759 304.281C492.304 299.9 443.563 308.167 404.933 335.629C374.69 357.128 354.754 384.195 355.37 422.417C356.928 440.543 364.377 456.655 378.4 468.525C379.55 469.494 380.711 470.45 381.882 471.393C384.864 473.185 389.404 476.071 392.485 477.266C389.942 478.675 379.348 482.253 376.51 482.784C374.784 481.785 372.19 479.776 370.83 478.307C370.616 477.297 357.224 461.748 355.174 457.406C351.043 448.654 348.878 441.677 346.594 432.409L345.857 432.144Z"/><path fill="#1E2551" d="M569.424 309.21C576.241 307.217 601.844 318.789 616.466 326.478C641.402 339.593 677.214 373.479 677.446 405.632C677.361 405.757 677.276 405.882 677.191 406.007C667.916 352.496 618.305 321.842 569.424 309.21Z"/><path fill="#1E2551" d="M677.214 425.941C679.137 432.439 673.534 442.353 670.953 448.035C668.043 454.439 652.45 473.151 645.387 473.243L646.57 472.415C664.114 460.012 673.518 447.35 677.214 425.941Z"/><path fill="#1E2551" d="M381.882 471.393C371.629 470.886 349.949 432.422 355.37 422.417C356.928 440.543 364.377 456.655 378.4 468.525C379.55 469.494 380.711 470.45 381.882 471.393Z"/><path fill="#FEFEFE" d="M354.511 314.336C357.658 311.21 362 307.826 365.62 305.146C423.12 262.566 493.792 255.299 562.761 264.818C563.267 264.563 563.774 264.307 564.28 264.051C578.601 265.634 595.983 270.742 609.455 275.219C614.988 277.058 625.864 281.394 629.148 283.42L629.564 284.863C634.326 287.644 639.862 289.977 644.791 292.735C657.006 299.704 668.42 307.993 678.826 317.452L677.651 315.039L678.018 314.724C680.303 316.679 692.09 327.813 692.453 329.88C691.067 329.083 690.831 328.81 689.656 327.773L690.272 329.356C686.444 327.967 678.175 317.093 674.016 314.215C669.838 311.325 668.413 309.236 664.724 314.504C664.696 316.717 666.612 317.983 668.431 319.861C665.226 317.847 660.093 312.927 655.414 309.744C630.273 292.64 604.245 280.64 574.044 274.593C525.846 264.943 466.862 266.767 420.604 284.676C410.64 288.534 396.389 296.625 387.22 302.167C383.67 304.313 378.075 308.79 374.093 311.397L373.608 311.2C374.818 309.957 375.065 310.124 375.345 308.696C373.598 308.309 363.753 308.691 362.077 309.262C359.839 310.026 357.897 313.712 354.511 314.336Z"/><path fill="#070815" d="M562.761 264.818C563.267 264.563 563.774 264.307 564.28 264.051C578.601 265.634 595.983 270.742 609.455 275.219C614.988 277.058 625.864 281.394 629.148 283.42L629.564 284.863C605.022 274.105 588.84 269.602 562.761 264.818Z"/><path fill="#070815" d="M678.826 317.452L677.651 315.039L678.018 314.724C680.303 316.679 692.09 327.813 692.453 329.88C691.067 329.083 690.831 328.81 689.656 327.773C688.152 326.854 680.459 319.068 678.826 317.452Z"/><path fill="#1E2551" d="M345.857 432.144L346.594 432.409C348.878 441.677 351.043 448.654 355.174 457.406C357.224 461.748 370.616 477.297 370.83 478.307C358.348 468.567 347.466 447.798 345.857 432.144Z"/><path fill="#1E2551" d="M687.878 424.586C687.223 423.061 687.417 413.689 687.183 411.202C686.405 402.908 685.561 396.31 682.598 388.468C681.354 385.175 676.729 375.164 676.796 372.408C686.259 389.796 688.963 405.114 687.878 424.586Z"/><path fill="#070815" d="M359.521 489.212L359.532 490.059C357.011 491.294 354.924 492.452 352.207 493.191C351.497 492.752 351.672 493.043 351.491 492.469C353.956 491.249 356.926 490.207 359.521 489.212Z"/><path fill="#070815" d="M394.849 476.707C417.031 469.165 461.42 461.42 484.609 459.265L485.788 459.923C485.417 460.308 467.041 462.966 465.997 462.851C458.316 462.003 397.248 477.681 394.849 476.707Z"/><path fill="#070815" d="M560.348 460.294C566.579 460.877 574.984 462.068 581.187 463.169C578.881 464.902 561.606 462.237 559.537 460.798L560.348 460.294Z"/><path fill="#171836" d="M515.284 384.186C532.283 381.703 548.075 393.472 550.555 410.471C553.035 427.47 541.263 443.261 524.264 445.738C507.268 448.214 491.482 436.446 489.003 419.451C486.524 402.456 498.289 386.668 515.284 384.186Z"/><defs><linearGradient id="gradient_0" gradientUnits="userSpaceOnUse" x1="521.91675" y1="437.15485" x2="518.15393" y2="398.68054"><stop offset="0" stop-color="#2A2B54"/><stop offset="1" stop-color="#4E5285"/></linearGradient></defs><path fill="url(#gradient_0)" d="M501.425 399.855C511.137 388.795 523.99 389.261 535.332 397.319C545.057 404.157 546.126 419.818 539.211 428.961C535.347 434.032 529.559 437.28 523.218 437.936C506.601 439.721 494.57 427.974 496.443 411.256C497.187 407.117 498.893 403.212 501.425 399.855Z"/><path fill="#BFC0D6" d="M501.425 399.855C511.137 388.795 523.99 389.261 535.332 397.319C527.303 399.781 519.859 395.758 511.582 399.934C506.796 400.764 505.205 402.17 501.425 399.855Z"/><path fill="#716F9B" d="M496.443 411.256C497.187 407.117 498.893 403.212 501.425 399.855C505.205 402.17 506.796 400.764 511.582 399.934C508.082 402.88 506.544 404.158 503.864 408.03C502.72 409.682 501.115 413.726 500.182 414.523C498.91 412.818 498.519 411.796 496.443 411.256Z"/><path fill="#F6AFE8" d="M399.932 395.018C413.051 393.873 416.788 404.687 422.553 414.338L440.335 444.395C433.86 446.376 428.079 448.094 421.511 449.703C417.483 450.248 405.014 451.005 401.997 448.899C397.521 445.773 383.903 431.9 382.397 426.942C378.528 414.199 387.351 398.739 399.932 395.018Z"/><path fill="#F6AFE8" d="M628.966 397.077C648.733 396.967 657.319 426.657 641.733 438.955C630.522 447.802 632.66 451.666 616.195 449.419C607.748 447.714 601.609 445.193 592.176 443.829C601.694 430.902 609.881 416.865 619.294 403.865C622.082 400.014 624.303 397.977 628.966 397.077Z"/><path fill="#171836" d="M590.628 360.336C603.812 358.966 615.648 368.448 617.187 381.613C618.726 394.778 609.397 406.735 596.252 408.443C587.598 409.567 579.009 405.949 573.767 398.971C568.526 391.994 567.444 382.736 570.934 374.738C574.425 366.74 581.948 361.238 590.628 360.336Z"/><defs><linearGradient id="gradient_1" gradientUnits="userSpaceOnUse" x1="594.07239" y1="401.45251" x2="591.54901" y2="371.03741"><stop offset="0" stop-color="#282953"/><stop offset="1" stop-color="#4D5183"/></linearGradient></defs><path fill="url(#gradient_1)" d="M582.908 369.857C589.317 365.409 597.871 365.632 604.041 370.407C611.745 376.37 613.256 387.405 607.438 395.219C601.619 403.033 590.615 404.75 582.693 399.078C574.772 393.407 572.85 382.436 578.373 374.41C579.597 372.631 581.133 371.089 582.908 369.857Z"/><path fill="#BFC0D6" d="M582.908 369.857C589.317 365.409 597.871 365.632 604.041 370.407C603.817 370.555 603.593 370.703 603.369 370.852C598.333 370.112 596.359 369.578 591.405 370.519C587.42 368.998 585.325 371.187 582.908 369.857Z"/><path fill="#ACAAC5" d="M582.908 369.857C585.325 371.187 587.42 368.998 591.405 370.519C591.231 370.583 591.056 370.647 590.882 370.712C588.125 370.418 581.129 378.547 580.17 378.422C579.67 376.887 579.42 375.616 578.373 374.41C579.597 372.631 581.133 371.089 582.908 369.857Z"/><path fill="#171836" d="M435.15 360.354C448.31 358.794 460.268 368.133 461.942 381.279C463.616 394.425 454.38 406.463 441.249 408.25C427.957 410.06 415.739 400.686 414.044 387.379C412.349 374.071 421.828 361.934 435.15 360.354Z"/><defs><linearGradient id="gradient_2" gradientUnits="userSpaceOnUse" x1="439.07321" y1="401.40298" x2="437.20325" y2="371.07996"><stop offset="0" stop-color="#272852"/><stop offset="1" stop-color="#4F5386"/></linearGradient></defs><path fill="url(#gradient_2)" d="M423.75 373.785C426.643 369.835 431.032 367.247 435.889 366.63C440.746 366.013 445.644 367.42 449.432 370.521C456.955 376.68 458.158 387.731 452.136 395.364C446.113 402.996 435.086 404.398 427.346 398.514C419.606 392.63 418.006 381.63 423.75 373.785Z"/><path fill="#ACAAC5" d="M423.75 373.785C426.643 369.835 431.032 367.247 435.889 366.63C440.746 366.013 445.644 367.42 449.432 370.521C444.587 370.851 440.789 369.07 435.833 370.344C433.239 371.012 425.556 374.708 423.75 373.785Z"/><path fill="#FEE692" d="M488.042 136.652C492.477 132.098 522.057 132.688 529.205 133.188C524.186 146.033 510.139 159.644 497.359 164.065C490.546 166.422 484.179 170.024 476.779 170.425C471.644 170.991 461.137 166.743 458.435 167.727C466.962 175.813 482.492 181.434 494.19 177.799C515.665 171.127 526.927 154.95 537.595 136.387C538.153 137.789 538.746 138.754 539.471 140.07L539.794 136.792C539.936 136.642 540.078 136.491 540.221 136.34L540.443 138.097L541.273 138.261C541.133 136.68 541.098 136.542 541.305 134.984C542.732 134.013 541.919 134.378 544.104 134.462C563.263 136.556 589.624 144.798 605.729 155.677C636.593 171.848 658.937 202.77 669.39 235.772C673.637 249.18 677.96 272.747 672.274 286.974C671.951 287.781 671.29 288.331 670.566 288.789C668.006 288.938 662.898 284.852 660.543 283.43C644.229 273.583 626.441 266.569 608.445 260.47C606.124 259.561 598.873 257.745 596.266 257.082C576.831 252.14 557.786 250.069 537.939 247.944C536.341 247.531 533.409 247.755 530.237 246.988L494.134 247.027C493.335 245.012 492.603 242.48 491.929 240.378C491.211 242.909 492.549 244.257 492.17 246.961L491.498 247.18C489.08 245.657 490.091 245.653 488.503 243.811C488.725 245.255 489.184 246.303 488.642 247.32C481.702 248.454 475.157 248.487 468.71 249.41C454.09 251.505 432.846 255.317 419.104 260.46C409.989 262.399 390.488 272.198 381.864 276.571C377.874 278.595 369.955 285.052 365.599 286.153C356.298 282.829 362.722 248.619 365.14 240.521C377.193 201.036 404.638 168.068 441.283 149.055C446.034 146.547 450.927 144.318 455.938 142.381C460.31 140.739 483.67 134.059 487.691 135.315L487.71 136.525L488.042 136.652Z"/><path fill="#FCB25F" d="M488.042 136.652C492.477 132.098 522.057 132.688 529.205 133.188C524.186 146.033 510.139 159.644 497.359 164.065C490.546 166.422 484.179 170.024 476.779 170.425C471.644 170.991 461.137 166.743 458.435 167.727L457.801 166.729C451.313 169.891 446.958 170.984 439.814 168.284L439.866 167.343C435.875 168.431 435.607 166.444 431.878 166.456L431.372 166.884L432.441 167.457C432.484 169.107 430.859 170.155 430.017 173.554C427.057 175.226 424.731 172.434 423.04 174.044C420.107 173.383 418.395 172.831 415.572 171.869C394.968 184.08 382.077 207.125 379.386 230.434C377.927 243.077 377.955 253.793 392.544 257.922C400.059 260.073 411.172 255.762 417.834 258.222C418.3 258.983 418.679 259.676 419.104 260.46C409.989 262.399 390.488 272.198 381.864 276.571C377.874 278.595 369.955 285.052 365.599 286.153C356.298 282.829 362.722 248.619 365.14 240.521C377.193 201.036 404.638 168.068 441.283 149.055C446.034 146.547 450.927 144.318 455.938 142.381C460.31 140.739 483.67 134.059 487.691 135.315L487.71 136.525L488.042 136.652Z"/><path fill="#FCB25F" d="M488.042 136.652C492.477 132.098 522.057 132.688 529.205 133.188C524.186 146.033 510.139 159.644 497.359 164.065C490.546 166.422 484.179 170.024 476.779 170.425C471.644 170.991 461.137 166.743 458.435 167.727L457.801 166.729C459.504 165.317 465.022 162.411 466.17 161.326C470.864 156.888 485.552 141.451 488.042 136.652Z"/><path fill="#171836" d="M487.71 136.525L488.042 136.652C485.552 141.451 470.864 156.888 466.17 161.326C465.022 162.411 459.504 165.317 457.801 166.729C451.313 169.891 446.958 170.984 439.814 168.284L439.866 167.343C443.142 166.405 447.126 165.645 450.203 164.228C462.919 158.371 478.37 146.707 487.71 136.525Z"/><defs><linearGradient id="gradient_3" gradientUnits="userSpaceOnUse" x1="539.63776" y1="209.62889" x2="675.53766" y2="213.98903"><stop offset="0" stop-color="#CD8A50"/><stop offset="1" stop-color="#FFBC67"/></linearGradient></defs><path fill="url(#gradient_3)" d="M541.273 138.261C541.133 136.68 541.098 136.542 541.305 134.984C542.732 134.013 541.919 134.378 544.104 134.462C563.263 136.556 589.624 144.798 605.729 155.677C636.593 171.848 658.937 202.77 669.39 235.772C673.637 249.18 677.96 272.747 672.274 286.974C671.951 287.781 671.29 288.331 670.566 288.789C668.006 288.938 662.898 284.852 660.543 283.43C644.229 273.583 626.441 266.569 608.445 260.47C619.017 258.47 640.216 259.253 649.245 252.332C651.98 250.236 652.85 244.26 652.96 240.776C653.729 216.417 645.398 195.911 628.296 178.453C623.477 173.253 609.364 159.621 601.579 160.205C586.15 161.363 575.063 161.458 560.413 155.285C557.719 154.15 555.011 152.578 551.883 152.503C550.352 153.277 550.934 152.69 550.278 154.507L549.849 153.618C545.914 149.278 542.797 144.841 539.471 140.07L539.794 136.792C539.936 136.642 540.078 136.491 540.221 136.34L540.443 138.097L541.273 138.261Z"/><path fill="#FCB25F" d="M544.104 134.462C563.263 136.556 589.624 144.798 605.729 155.677C603.545 156.867 586.427 157.77 582.73 156.637C579.547 155.662 574.097 153.645 571.04 152.836C561.679 150.588 552.215 147.944 546.89 139.128C546.094 137.811 544.454 135.803 544.104 134.462Z"/><path fill="#070815" d="M539.471 140.07L539.794 136.792C539.936 136.642 540.078 136.491 540.221 136.34L540.443 138.097L541.273 138.261C543.753 144.679 546.028 146.091 549.8 151.714C550.099 152.158 549.93 153.083 549.849 153.618C545.914 149.278 542.797 144.841 539.471 140.07Z"/><path fill="#171836" d="M486.029 208.79C500.76 213.709 532.526 214.656 546.967 209.43C547.062 228.194 545.877 231.443 537.939 247.944C536.341 247.531 533.409 247.755 530.237 246.988L494.134 247.027C493.335 245.012 492.603 242.48 491.929 240.378C491.211 242.909 492.549 244.257 492.17 246.961L491.498 247.18C489.08 245.657 490.091 245.653 488.503 243.811C485.473 235.121 485.937 218.113 486.029 208.79Z"/><path fill="#EAB5BD" d="M491.543 225.659C495.764 227.455 531.699 226.454 537.126 225.634C536.361 235.844 535.405 238.208 530.237 246.988L494.134 247.027C493.335 245.012 492.603 242.48 491.929 240.378C491.285 234.709 491.09 231.315 491.543 225.659Z"/><path fill="#BC8D95" d="M494.045 217.011C508.646 216.762 523.225 217.575 538.013 217.125L537.126 225.634C531.699 226.454 495.764 227.455 491.543 225.659C492.278 221.953 492.724 220.569 494.045 217.011Z"/><path fill="#C57F46" d="M423.04 174.044C424.731 172.434 427.057 175.226 430.017 173.554C430.859 170.155 432.484 169.107 432.441 167.457L431.372 166.884L431.878 166.456C435.607 166.444 435.875 168.431 439.866 167.343L439.814 168.284C438.376 169.356 438.597 168.742 438.398 169.99C439.84 170.698 440.241 170.705 441.794 171.033C440.33 174.51 426.614 175.397 423.04 174.044Z"/><path fill="#171836" d="M588.45 188.643C610.068 187.438 614.721 223.66 604.841 237.326C600.209 243.734 598.015 245.271 590.644 247.063C585.973 247.047 582.572 246.973 578.636 243.882C565.441 233.521 565.001 210.227 574.365 197.251C578.131 192.03 582.376 189.607 588.45 188.643Z"/><path fill="#394067" d="M577.273 205.791C581.355 197.95 587.261 191.908 595.668 198.244C597.867 200.1 599.117 201.948 600.285 204.582C601.977 207.365 603.483 216.551 602.002 219.107C601.3 215.39 603.556 215.573 601.652 213.432C600.945 215.185 601.53 214.622 600.216 215.595C599.416 218.237 598.151 223.099 595.487 224.436C590.855 226.76 584.272 225.165 579.83 223.129C578.152 220.439 576.424 217.737 574.837 214.997C575.102 211.782 575.388 208.548 577.273 205.791Z"/><path fill="#BFC0D6" d="M577.273 205.791C581.355 197.95 587.261 191.908 595.668 198.244C592.687 199.207 591.526 198.646 588.972 199.019C583.933 201.227 583.731 202.395 579.693 206.057C579.244 206.464 577.878 206.026 577.273 205.791Z"/><path fill="#ACAAC5" d="M595.668 198.244C597.867 200.1 599.117 201.948 600.285 204.582L599.425 204.87C595.798 201.287 593.81 199.817 588.972 199.019C591.526 198.646 592.687 199.207 595.668 198.244Z"/><path fill="#171836" d="M437.583 189.101C466.67 185.791 470.77 235.737 445.556 246.864C442.182 247.101 438.762 247.328 435.61 245.99C421 239.789 418.397 216.962 423.713 203.805C426.74 196.315 430.366 192.204 437.583 189.101Z"/><defs><linearGradient id="gradient_4" gradientUnits="userSpaceOnUse" x1="441.98926" y1="236.98886" x2="441.15866" y2="200.50777"><stop offset="0" stop-color="#1E1E47"/><stop offset="1" stop-color="#515689"/></linearGradient></defs><path fill="url(#gradient_4)" d="M435.53 198.296C443.211 192.4 449.089 196.69 452.849 204.392C457.773 211.39 454.736 230.851 447.648 235.939C445.505 237.479 442.832 238.091 440.232 237.638C436.677 236.985 434.148 234.269 432.318 231.325C428.293 224.868 427.08 217.046 428.961 209.673C429.367 208.048 429.797 206.548 430.641 205.088C432.056 202.06 433.015 200.484 435.53 198.296Z"/><path fill="#BFC0D6" d="M435.53 198.296C443.211 192.4 449.089 196.69 452.849 204.392C448.723 205.244 447.673 200.207 440.948 199.788C438.891 199.357 437.144 199.634 435.53 198.296Z"/><path fill="#ACAAC5" d="M430.641 205.088C432.056 202.06 433.015 200.484 435.53 198.296C437.144 199.634 438.891 199.357 440.948 199.788C437.963 201.657 434.437 206.434 431.909 206.258C431.154 205.703 431.111 205.818 430.641 205.088Z"/><defs><linearGradient id="gradient_5" gradientUnits="userSpaceOnUse" x1="567.00305" y1="602.46967" x2="546.09747" y2="463.04001"><stop offset="0" stop-color="#FFB960"/><stop offset="1" stop-color="#FFE38F"/></linearGradient></defs><path fill="url(#gradient_5)" d="M325.596 516.694C337.224 513.596 345.832 507.958 356.506 502.852C364.356 499.097 373.687 495.722 382 493.104C401.103 487.294 420.518 482.567 440.153 478.946C468.142 473.694 488.334 470.98 516.587 470.97C560.31 470.881 603.801 477.343 645.61 490.141C655.185 493.025 664.851 496.368 674.072 500.142C686.537 505.244 701.915 517.322 715.745 516.374C730.032 515.396 746.983 503.797 755.483 492.52C758.838 488.068 761.523 482.786 765.298 479.199C767.533 477.075 771.27 476.275 773.94 478.096C781.177 483.03 787.118 497.777 789.334 505.615C791.441 513.065 788.018 523.408 783.429 529.578C756.505 565.779 702.536 580.701 660.336 589.222C652.422 590.82 641.648 592.573 634.075 593.231C633.118 577.412 631.137 542.857 619.245 531.931C611.596 524.904 591.674 524.451 581.393 524.507C579.863 508.126 580.065 489.141 559.231 488.492C531.524 487.628 502.663 487.193 474.99 488.671C459.034 489.524 457.791 512.327 456.422 524.599C408.023 524.748 408.178 537.16 402.15 581.29C401.843 583.708 401.321 586.38 400.907 588.806C374.668 584.042 353.338 579.24 327.708 571.891C328.965 568.607 329.329 565.038 329.577 561.558C328.68 560.553 327.931 559.451 327.132 558.36C327.809 555.591 326.725 553.903 325.354 551.514C323.846 551.856 321.925 552.12 320.543 552.496L319.291 551.026C318.716 549.043 319.01 548.561 319.515 546.457C320.514 544.592 321.438 542.522 322.347 540.597L322.214 538.413L322.627 538.081C321.779 532.489 320.432 529.248 320.339 523.432C321.193 518.347 320.4 517.502 325.596 516.694Z"/><path fill="#FCB25F" d="M329.577 561.558C329.91 559.612 329.552 559.587 330.72 558.668C337.981 560.748 345.315 564.012 352.563 565.95C364.837 569.232 377.446 572.362 389.858 575.022C392.52 575.593 400.746 576.659 401.372 578.73C401.506 579.175 401.996 580.711 402.15 581.29C401.843 583.708 401.321 586.38 400.907 588.806C374.668 584.042 353.338 579.24 327.708 571.891C328.965 568.607 329.329 565.038 329.577 561.558Z"/><path fill="#A56338" d="M322.347 540.597C322.728 541.698 323.095 541.735 322.587 542.597C320.746 545.716 323.792 548.316 325.354 551.514C323.846 551.856 321.925 552.12 320.543 552.496L319.291 551.026C318.716 549.043 319.01 548.561 319.515 546.457C320.514 544.592 321.438 542.522 322.347 540.597Z"/><path fill="#FEFEFE" d="M463.191 544.822C463.61 543.844 463.878 539.465 464.146 537.946C466.04 527.2 464.962 512.085 469.794 502.548C470.701 500.76 473.594 498.798 475.364 498.749C485.001 498.484 495.837 498.976 505.458 499L540.832 498.953C571.652 498.694 568.462 494.448 571.769 524.457L572.217 522.938C574.541 525.004 573.816 541.743 573.096 545.249C573.142 547.602 573.511 555.309 573.928 557.599L574.177 554.494L574.438 554.39C575.145 557.379 576.234 566.815 575.385 569.767C574.754 570.317 575.059 570.264 574.614 570.285C574.833 575.932 576.564 592.321 574.316 596.047C572.143 598.058 562.293 598.522 559.513 597.39L559.426 597.051L559.92 596.569C555.896 596.704 551.874 596.86 547.852 597.04L547.475 597.958C544.768 598.626 539.387 599.251 536.698 598.908C526.617 599.234 516.325 598.877 506.196 599.095C503.763 599.245 500.547 598.085 498.377 597.033C493.985 596.864 489.593 596.718 485.2 596.596L487.408 597.269L487.093 597.653C481.973 598.722 467.489 596.891 461.487 596.447C460.519 596.376 460.684 596.345 460.144 595.406C457.971 594.644 458.681 595.32 457.653 593.65C456.665 588.961 460.106 557.542 461.319 552.962L461.842 552.747L462.194 553.9L462.46 552.526C461.123 550.232 461.122 546.14 462.69 544.088L463.191 544.822Z"/><path fill="#171836" d="M498.377 597.033C513.507 596.972 532.913 596.481 547.852 597.04L547.475 597.958C544.768 598.626 539.387 599.251 536.698 598.908C526.617 599.234 516.325 598.877 506.196 599.095C503.763 599.245 500.547 598.085 498.377 597.033Z"/><path fill="#070815" d="M506.196 599.095L505.353 597.959C507.136 597.161 534.483 597.3 535.74 597.86L533.931 598.267C534.547 598.761 535.757 598.767 536.698 598.908C526.617 599.234 516.325 598.877 506.196 599.095Z"/><path fill="#070815" d="M457.653 593.65C456.665 588.961 460.106 557.542 461.319 552.962L461.842 552.747L462.194 553.9C461.365 563.355 459.463 584.818 457.653 593.65Z"/><path fill="#070815" d="M460.144 595.406L485.2 596.596L487.408 597.269L487.093 597.653C481.973 598.722 467.489 596.891 461.487 596.447C460.519 596.376 460.684 596.345 460.144 595.406Z"/><path fill="#070815" d="M571.769 524.457L572.217 522.938C574.541 525.004 573.816 541.743 573.096 545.249C572.901 538.295 572.302 531.393 571.769 524.457Z"/><path fill="#070815" d="M559.92 596.569C564.67 596.527 569.34 596.059 574.316 596.047C572.143 598.058 562.293 598.522 559.513 597.39L559.426 597.051L559.92 596.569Z"/><path fill="#070815" d="M573.928 557.599L574.177 554.494L574.438 554.39C575.145 557.379 576.234 566.815 575.385 569.767C574.754 570.317 575.059 570.264 574.614 570.285C574.24 565.832 574.024 562.065 573.928 557.599Z"/><path fill="#070815" d="M462.46 552.526C461.123 550.232 461.122 546.14 462.69 544.088L463.191 544.822L462.46 552.526Z"/><path fill="#545660" d="M482.077 566.864C494.973 566.295 510.584 567.144 523.751 566.841C529.107 566.718 547.742 566.579 552.059 567.183C552.658 568.418 552.487 570.564 552.488 572.044C534.474 572.299 516.365 571.909 498.34 572.106C493.498 572.159 487.357 572.459 482.66 571.83C481.735 570.6 482.042 568.532 482.077 566.864Z"/><path fill="#545660" d="M542.382 547.959C540.162 548.166 530.198 548.294 528.11 548.087C521.649 547.445 487.805 549.314 484.907 547.028C484.858 545.545 484.613 544.481 485.435 543.313C488.882 542.654 503.016 542.828 507.302 542.875C519.76 543.013 532.88 542.636 545.281 543.03C547.895 542.928 550.984 542.445 551.378 545.765C548.819 548.822 546.08 548.096 542.382 547.959Z"/><path fill="#070815" d="M545.281 543.03C547.895 542.928 550.984 542.445 551.378 545.765C548.819 548.822 546.08 548.096 542.382 547.959C545.058 546.94 546.654 547.581 549.169 545.741L549.12 544.869C547.966 543.584 546.959 543.502 545.281 543.03Z"/><path fill="#070815" d="M488.103 517.569C496.194 518.108 545.627 516.766 548.832 518.016C549.581 519.452 549.223 520.749 549.058 522.421C529.172 522.142 507.231 522.082 487.392 522.513C487.887 520.486 487.939 519.674 488.103 517.569Z"/><path fill="#7F8397" d="M545.431 519.252C546.421 519.226 545.951 519.146 546.846 519.47L547.39 519.343L547.462 520.019C543.716 521.071 529.684 520.705 525.102 520.702L490.982 520.751C489.187 520.733 489.85 521.071 488.631 520.223C490.499 518.639 503.767 519.358 507.131 519.345L545.431 519.252Z"/><path fill="#F38648" d="M270.631 481.637C273.586 482.008 277.319 487.945 277.205 490.352C278.533 493.015 281.826 496.635 283.929 498.812C286.211 500.661 288.254 502.281 290.633 504.019L293.744 506.24C302.537 511.444 306.606 513.791 316.706 516.116C319.439 516.337 322.962 516.808 325.596 516.694C320.4 517.502 321.193 518.347 320.339 523.432C320.432 529.248 321.779 532.489 322.627 538.081L322.214 538.413L322.347 540.597C321.438 542.522 320.514 544.592 319.515 546.457C319.01 548.561 318.716 549.043 319.291 551.026L320.543 552.496C321.925 552.12 323.846 551.856 325.354 551.514C326.725 553.903 327.809 555.591 327.132 558.36C327.931 559.451 328.68 560.553 329.577 561.558C329.329 565.038 328.965 568.607 327.708 571.891C321.277 569.937 314.378 567.431 308.036 565.181C306.593 564.504 303.695 563.508 302.102 562.901L294.531 559.85C291.73 558.72 288.946 557.546 286.181 556.329L272.914 550.265C266.399 547.319 258.388 541.337 253.454 536.137C249.461 532.986 245.046 524.095 245.464 519.091C246.299 509.097 252.225 495.882 259.354 489.01C262.509 484.456 265.011 482.261 270.631 481.637Z"/><path fill="#F38648" d="M270.631 481.637C273.586 482.008 277.319 487.945 277.205 490.352C278.533 493.015 281.826 496.635 283.929 498.812C283.178 500.595 282.293 503.776 281.696 504.933C281.421 509.152 281.595 510.434 279.153 513.959C279.939 516.03 280.173 516.088 281.961 517.545C280.803 519.747 280.12 520.278 278.358 522.116C274.917 526.098 275.407 530.639 273.004 533.251L272.219 533.168L270.898 531.15C266.249 537.018 263.432 537.354 256.992 533.239C255.92 535.345 256.115 535.173 253.454 536.137C249.461 532.986 245.046 524.095 245.464 519.091C246.299 509.097 252.225 495.882 259.354 489.01C262.509 484.456 265.011 482.261 270.631 481.637Z"/><defs><linearGradient id="gradient_6" gradientUnits="userSpaceOnUse" x1="245.9493" y1="517.53687" x2="255.23596" y2="518.41394"><stop offset="0" stop-color="#8E5E4E"/><stop offset="1" stop-color="#A67052"/></linearGradient></defs><path fill="url(#gradient_6)" d="M259.354 489.01C258.875 491.579 258.483 492.383 257.432 494.808C259.402 498.141 257.952 500.647 256.279 503.945C255.098 508.499 253.224 520.214 255.508 524.461C254.948 528.305 254.492 529.932 256.992 533.239C255.92 535.345 256.115 535.173 253.454 536.137C249.461 532.986 245.046 524.095 245.464 519.091C246.299 509.097 252.225 495.882 259.354 489.01Z"/><path fill="#C57F46" d="M257.432 494.808C259.402 498.141 257.952 500.647 256.279 503.945L255.708 503.288C254.261 503.832 253.866 503.855 252.864 505.11L252.669 504.572C253.506 501.586 255.711 497.41 257.432 494.808Z"/><path fill="#FEE692" d="M264.256 512.912C260.386 499.178 277.208 494.288 281.696 504.933C281.421 509.152 281.595 510.434 279.153 513.959C278.391 514.621 278.137 514.713 277.591 515.525C271.787 516.447 268.384 517.499 264.256 512.912Z"/><path fill="#FEE692" d="M263.446 519.577C269.935 521.531 271.461 524.733 270.898 531.15C266.249 537.018 263.432 537.354 256.992 533.239C254.492 529.932 254.948 528.305 255.508 524.461C256.411 519.751 259.488 519.764 263.446 519.577Z"/><path fill="#C57F46" d="M279.153 513.959C279.939 516.03 280.173 516.088 281.961 517.545C280.803 519.747 280.12 520.278 278.358 522.116C274.917 526.098 275.407 530.639 273.004 533.251L272.219 533.168L270.898 531.15C271.461 524.733 269.935 521.531 263.446 519.577L263.885 518.564C269.341 521.588 273.778 520.213 277.591 515.525C278.137 514.713 278.391 514.621 279.153 513.959Z"/><path fill="#171836" d="M270.631 481.637C273.586 482.008 277.319 487.945 277.205 490.352C276.034 489.095 271.951 483.357 270.631 481.637Z"/><path fill="#FEE692" d="M295.242 553.042C298.511 548.292 300.494 546.814 305.999 549.341L306.489 550.953C307.427 551.532 310.971 553.662 311.447 554.281L314.238 554.713C317.038 552.032 317.284 553.016 320.984 553.304L320.543 552.496C321.925 552.12 323.846 551.856 325.354 551.514C326.725 553.903 327.809 555.591 327.132 558.36C327.931 559.451 328.68 560.553 329.577 561.558C329.329 565.038 328.965 568.607 327.708 571.891C321.277 569.937 314.378 567.431 308.036 565.181C306.593 564.504 303.695 563.508 302.102 562.901L294.531 559.85C291.73 558.72 288.946 557.546 286.181 556.329C288.328 554.311 288.268 552.605 291.392 550.83C292.501 552.303 293.324 553.055 295.242 553.042Z"/><path fill="#FCB25F" d="M307.081 554.094C309.341 554.366 309.905 554.957 311.897 556.231C308.529 562.153 309.835 560.503 308.036 565.181C306.593 564.504 303.695 563.508 302.102 562.901C304.672 561.893 306.035 556.761 307.081 554.094Z"/><path fill="#FCB25F" d="M286.181 556.329C288.328 554.311 288.268 552.605 291.392 550.83C292.501 552.303 293.324 553.055 295.242 553.042L295.099 553.967C293.755 554.189 292.292 553.313 290.948 552.733C293.082 554.047 294.118 557.457 294.531 559.85C291.73 558.72 288.946 557.546 286.181 556.329Z"/><path fill="#B76D37" d="M325.354 551.514C326.725 553.903 327.809 555.591 327.132 558.36C324.943 557.418 324.448 557.081 322.51 555.673L320.984 553.304L320.543 552.496C321.925 552.12 323.846 551.856 325.354 551.514Z"/><path fill="#FCB25F" d="M314.238 554.713C317.038 552.032 317.284 553.016 320.984 553.304L322.51 555.673C319.928 556.339 316.962 555.328 314.238 554.713Z"/><path fill="#C57F46" d="M283.929 498.812C286.211 500.661 288.254 502.281 290.633 504.019L293.744 506.24C302.537 511.444 306.606 513.791 316.706 516.116C319.439 516.337 322.962 516.808 325.596 516.694C320.4 517.502 321.193 518.347 320.339 523.432C320.171 524.831 320.232 526.887 319.384 527.563C315.35 524.49 314.099 518.45 305.98 523.679C301.949 526.275 302.884 527.503 298.411 525.648C297.672 524.867 296.375 522.883 295.698 521.907C293.198 519.65 291.089 519.542 287.84 518.854C285.894 518.519 283.889 518.002 281.961 517.545C280.173 516.088 279.939 516.03 279.153 513.959C281.595 510.434 281.421 509.152 281.696 504.933C282.293 503.776 283.178 500.595 283.929 498.812Z"/><path fill="#B76D37" d="M283.929 498.812C286.211 500.661 288.254 502.281 290.633 504.019L293.744 506.24C293.725 509.143 293.607 509.607 292.76 512.397L293.787 513.266L292.642 513.937C289.75 515.037 290.112 516.638 287.84 518.854C285.894 518.519 283.889 518.002 281.961 517.545C280.173 516.088 279.939 516.03 279.153 513.959C281.595 510.434 281.421 509.152 281.696 504.933C282.293 503.776 283.178 500.595 283.929 498.812Z"/><path fill="#F38648" d="M292.76 512.397C290.604 510.32 289.05 506.845 290.633 504.019L293.744 506.24C293.725 509.143 293.607 509.607 292.76 512.397Z"/><path fill="#FCB25F" d="M293.744 506.24C302.537 511.444 306.606 513.791 316.706 516.116C311.683 523.151 299.187 516.531 293.787 513.266L292.76 512.397C293.607 509.607 293.725 509.143 293.744 506.24Z"/><path fill="#F38648" d="M287.84 518.854C290.112 516.638 289.75 515.037 292.642 513.937C296.32 516.469 296.161 517.778 295.698 521.907C293.198 519.65 291.089 519.542 287.84 518.854Z"/><path fill="#FEE692" d="M281.961 517.545C283.889 518.002 285.894 518.519 287.84 518.854C291.089 519.542 293.198 519.65 295.698 521.907C296.375 522.883 297.672 524.867 298.411 525.648C298.449 528.164 298.582 529.226 297.959 531.67C295.191 536.174 291.123 534.696 286.156 534.322C284.248 533.878 282.505 532.905 281.125 531.515C278.409 528.729 278.332 525.66 278.358 522.116C280.12 520.278 280.803 519.747 281.961 517.545Z"/><path fill="#FCB25F" d="M286.156 534.322L288.499 533.823C292.023 530.563 293.268 529.378 297.959 531.67C295.191 536.174 291.123 534.696 286.156 534.322Z"/><path fill="#FEE692" d="M305.7 544.094C306.679 540.335 305.059 536.525 307.068 532.683C309.43 528.164 313.373 527.934 317.432 530.396C321.003 532.562 321.271 534.635 322.214 538.413L322.347 540.597C321.438 542.522 320.514 544.592 319.515 546.457C315.186 547.405 308.584 547.995 305.7 544.094Z"/><path fill="#FEE692" d="M272.914 550.265C275.304 546.07 276.504 543.091 281.546 541.628C287.36 539.942 293.938 544.51 291.392 550.83C288.268 552.605 288.328 554.311 286.181 556.329L272.914 550.265Z"/><path fill="#FEFEFE" d="M582.004 536.462C582.179 535.874 582.201 535.069 582.84 534.931C590.846 533.21 603.124 534.45 610.115 538.599L611.229 538.211C619.493 542.821 626.31 578.214 623.662 586.649C623.735 589.271 623.932 591.78 624.126 594.391C620.771 594.675 617.031 594.919 613.74 595.428L617.199 595.714L617.038 596.093L616.459 595.591L616.195 595.534L615.923 596.387L615.663 595.437L615.41 596.471C610.163 597.08 589.344 599.477 585.564 598.586L585.456 598.097L585.877 597.846C584.641 596.908 584.986 594.875 584.931 593.393C583.142 590.452 583.098 574.498 583.03 570.099C582.951 564.996 580.703 550.201 582.91 546.757L582.738 543.846C582.641 545.17 582.717 545.363 582.214 546.563L581.684 546.114C581.038 542.012 581.225 540.385 582.004 536.462Z"/><path fill="#070815" d="M610.115 538.599L611.229 538.211C619.493 542.821 626.31 578.214 623.662 586.649C622.028 572.175 620.54 548.799 610.115 538.599Z"/><path fill="#070815" d="M584.931 593.393C583.142 590.452 583.098 574.498 583.03 570.099C582.951 564.996 580.703 550.201 582.91 546.757C583.685 559.529 585.293 581.039 584.931 593.393Z"/><path fill="#070815" d="M585.877 597.846C593.081 596.786 606.284 595.895 613.74 595.428L617.199 595.714L617.038 596.093L616.459 595.591L616.195 595.534L615.923 596.387L615.663 595.437L615.41 596.471C610.163 597.08 589.344 599.477 585.564 598.586L585.456 598.097L585.877 597.846Z"/><path fill="#070815" d="M582.004 536.462C582.32 539.019 582.562 541.256 582.738 543.846C582.641 545.17 582.717 545.363 582.214 546.563L581.684 546.114C581.038 542.012 581.225 540.385 582.004 536.462Z"/><path fill="#FEFEFE" d="M410.375 590.593C412.744 576.553 414.98 550.754 424.626 539.842C430.216 533.519 446.549 534.897 454.835 535.067L453.112 551.452C454.223 554.386 454.05 562.689 452.429 565.155L451.876 564.901L451.753 564.102C450.932 569.277 449.136 592.311 447.916 594.805L447.779 595.392C445.705 596.423 421.632 593.444 419.296 592.164L420.381 591.77C417.528 591.16 413.377 590.88 410.375 590.593Z"/><path fill="#070815" d="M420.381 591.77C427.984 592.599 440.89 593.575 447.916 594.805L447.779 595.392C445.705 596.423 421.632 593.444 419.296 592.164L420.381 591.77Z"/><path fill="#070815" d="M453.112 551.452C454.223 554.386 454.05 562.689 452.429 565.155L451.876 564.901L451.753 564.102C452.139 559.917 452.655 555.639 453.112 551.452Z"/><path fill="#394067" d="M827.276 497.077C831.193 505.404 835.474 521.736 838.334 531.114L838.252 531.586C837.663 534.818 835.076 542.926 835.01 545.075L835.591 545.241C836.914 542.431 836.995 538.01 838.426 534.895L839.015 534.894C838.978 534.838 843.464 553.875 843.732 555.751C846.755 576.895 853.733 602.967 847.915 623.911C847.291 626.158 839.292 636.104 839.505 637.386C842.208 635.818 848.499 624.552 849.65 620.816C849.92 619.376 849.956 617.739 850.755 616.807C850.926 618.409 851.02 619.409 851.023 621.015C851.07 634.655 850.846 648.036 849.496 661.623C849.281 663.783 849.009 666.262 849.051 668.412C850.309 672.088 849.861 675.538 849.27 679.31C844.701 708.486 834.359 739.375 821.024 765.707C819.896 765.927 820.485 765.921 819.211 765.254C798.007 803.117 770.859 833.52 733.806 856.902C731.294 858.487 721.644 863.933 719.876 865.624C719.057 868.938 708.958 873.537 705.515 874.182C704.751 874.265 704.085 875.097 703.565 875.627C701.462 877.774 698.496 878.597 695.833 879.831C647.723 902.117 595.288 913.205 542.544 916.535C537.365 916.862 532.088 917.041 526.978 916.001C524.875 915.661 521.279 915.848 519.043 915.902C504.007 916.263 489.146 915.181 474.142 914.119C469.446 915.325 459.23 914.933 455.388 913.224L455.432 912.313C454.512 911.958 448.066 911.264 446.654 911.092C444.233 912.942 437.905 911.176 434.818 910.626C411.79 906.646 389.117 900.83 367.017 893.234C360.771 891.051 328.103 878.472 326.067 874.264C316.957 869.255 306.313 862.696 297.548 858.128L296.974 858.579C290.612 856.947 285.715 851.795 280.906 847.711L280.905 846.917C279.942 846.623 278.593 846.701 277.838 846.193C269.565 840.556 262.641 833.291 255.456 826.365C225.946 797.919 206.18 761.799 194.577 722.724C189.06 704.143 185.562 690.614 186.358 670.994C186.513 669.182 185.915 660.411 185.766 658.268C185.208 650.229 184.923 643.113 184.953 635.063C184.53 632.705 184.553 628.151 184.189 625.16L184.608 624.148C186.297 626.494 187.909 630.663 189.108 633.455L188.95 633.689C189.027 635.843 191.97 638.739 191.999 639.988C192.08 643.421 191.639 646.615 192.027 650.145C193.23 661.076 195.295 672.889 198.642 683.362L199.062 683.01C196.211 672.788 192.175 654.97 192.529 644.768L192.889 644.512C193.088 672.733 208.066 711.336 222.996 735.389C225.988 740.21 227.789 739.233 231.657 742.119C233.994 743.863 236.109 748.145 238.8 750.286C242.658 753.354 249.122 754.442 251.432 758.859C251.884 759.902 251.954 760.177 252.947 760.859C253.066 760.302 253.368 758.863 252.934 758.428C250.733 756.219 246.724 752.456 244.745 750.414C239.897 745.41 221.505 725.127 219.062 719.515L219.409 718.877C220.918 720.053 219.799 719.157 220.361 719.935C238.709 745.328 263.018 765.601 284.859 787.882C286.772 789.833 295.311 796.935 297.287 798.539C297.265 798.521 315.574 801.507 316.983 801.79C317.966 800.903 318.184 800.604 319.346 800.01C322.111 801.461 324.046 804.554 326.484 806.276C335.655 812.757 346.506 818.021 355.147 824.893C358.981 827.942 363.7 833.171 367.556 836.505C369.095 837.836 369.436 839.123 370.838 840.177C369.972 835.536 366.545 827.719 364.831 822.892C360.98 812.048 359.943 804.958 358.652 793.851C356.216 792.552 351.456 792.09 349.415 791.122C345.207 788.894 341.358 785.947 337.241 783.476C335.007 782.135 328.491 779.219 327.654 777.375C331.053 778.097 345.523 787.734 349.255 789.844C352.044 791.421 355.993 792.399 359.158 793.305C357.814 784.327 357.981 775.017 357.995 765.96C358.028 744.327 358.182 721.639 367.519 701.635C379.74 675.452 401.165 659.103 427.817 649.329C436.566 646.12 445.275 642.959 454.498 641.387C480.17 637.01 558.662 635.714 583.396 641.796C594.161 644.442 607.006 647.55 616.874 652.695C622.227 655.486 626.788 659.529 632.344 662.029L633.073 662.35C650.159 661.017 670.377 659.451 686.819 655.074C748.478 638.661 811.75 595.996 824.278 529.303C826.363 518.203 826.52 508.151 827.276 497.077Z"/><path fill="#070815" d="M186.358 670.994C189.104 703.209 200.407 743.874 216.485 772.111C228.632 795.312 244.276 814.523 263.506 832.147C266.743 835.114 279.524 845.321 280.905 846.917C279.942 846.623 278.593 846.701 277.838 846.193C269.565 840.556 262.641 833.291 255.456 826.365C225.946 797.919 206.18 761.799 194.577 722.724C189.06 704.143 185.562 690.614 186.358 670.994Z"/><path fill="#070815" d="M719.876 865.624C719.057 868.938 708.958 873.537 705.515 874.182C704.751 874.265 704.085 875.097 703.565 875.627C701.462 877.774 698.496 878.597 695.833 879.831C647.723 902.117 595.288 913.205 542.544 916.535C537.365 916.862 532.088 917.041 526.978 916.001C584.02 914.315 644.864 902.425 696.54 877.996C704.449 874.258 712.214 869.865 719.876 865.624Z"/><path fill="#070815" d="M326.067 874.264C356.144 889.301 388.116 900.205 421.114 906.679C428.217 908.134 439.416 910.342 446.654 911.092C444.233 912.942 437.905 911.176 434.818 910.626C411.79 906.646 389.117 900.83 367.017 893.234C360.771 891.051 328.103 878.472 326.067 874.264Z"/><path fill="#5E6698" d="M184.953 635.063L185.24 629.269L185.391 629.158C185.637 643.155 185.981 657.142 187.286 671.087C187.451 672.842 188.507 676.835 189.054 678.586C192.238 688.762 191.495 699.404 193.624 709.765C195.152 717.201 198.048 724.458 199.942 731.79C202.917 741.984 208.341 753.126 212.495 762.979C213.881 766.268 216.128 768.635 217.054 771.937L216.485 772.111C200.407 743.874 189.104 703.209 186.358 670.994C186.513 669.182 185.915 660.411 185.766 658.268C185.208 650.229 184.923 643.113 184.953 635.063Z"/><path fill="#070815" d="M849.051 668.412C850.309 672.088 849.861 675.538 849.27 679.31C844.701 708.486 834.359 739.375 821.024 765.707C819.896 765.927 820.485 765.921 819.211 765.254C832.612 739.373 847.656 697.859 849.051 668.412Z"/><path fill="#070815" d="M280.905 846.917C284.667 848.763 293.249 855.366 297.548 858.128L296.974 858.579C290.612 856.947 285.715 851.795 280.906 847.711L280.905 846.917Z"/><path fill="#070815" d="M455.432 912.313C460.818 912.888 468.913 913.953 474.142 914.119C469.446 915.325 459.23 914.933 455.388 913.224L455.432 912.313Z"/><path fill="#FEFEFE" d="M367.186 732.325C367.679 731.274 368.42 725.319 368.73 723.676C375.538 687.568 406.581 659.919 442.575 654.647C461.674 651.85 484.361 653.074 504.101 653.07L547.717 653.069C566.954 653.073 577.852 652.413 596.874 655.773C602.699 654.04 612.013 659.943 617.005 661.983C641.716 672.083 659.372 694.846 665.364 720.748C665.964 723.341 667.049 727.004 665.66 729.542C666.541 742.109 666.379 755.734 666.419 768.407C666.455 779.985 666.774 792.897 665.587 804.302C669.308 810.567 657.663 835.731 652.987 841.497C652.696 841.856 652.947 840.962 652.514 842.607L651.663 842.137C650.595 843.533 645.148 850.44 644.709 851.52C642.515 860.146 620.295 873.17 612.759 877.137C581.757 893.459 549.371 889.207 516.272 890.05C468.024 891.28 419.817 890.589 387.071 848.714C366.013 822.526 364.353 795.789 365.097 763.354C365.201 758.812 364.701 732.76 366.636 731.346L367.186 732.325Z"/><path fill="#070815" d="M644.709 851.52C642.515 860.146 620.295 873.17 612.759 877.137C581.757 893.459 549.371 889.207 516.272 890.05C468.024 891.28 419.817 890.589 387.071 848.714C366.013 822.526 364.353 795.789 365.097 763.354C365.201 758.812 364.701 732.76 366.636 731.346L367.186 732.325C366.26 744.421 366.505 755.681 366.306 767.51C365.774 799.104 368.451 824.953 389.643 850C425.084 891.888 471.428 889.131 520.634 888.915C563.343 888.728 599.598 891.364 634.848 861.194C638.349 858.194 641.643 854.963 644.709 851.52Z"/><path fill="#171836" d="M596.874 655.773C602.699 654.04 612.013 659.943 617.005 661.983C641.716 672.083 659.372 694.846 665.364 720.748C665.964 723.341 667.049 727.004 665.66 729.542C658.272 688.614 636.548 666.867 596.874 655.773Z"/><path fill="#171836" d="M665.587 804.302C669.308 810.567 657.663 835.731 652.987 841.497C652.696 841.856 652.947 840.962 652.514 842.607L651.663 842.137C659.543 827.301 662.952 821.811 665.587 804.302Z"/><path fill="#394067" d="M423.266 817.254C421.472 814.342 422.113 798.28 422.125 793.763L422.202 757.582L422.123 720.012C422.113 704.288 420.02 684.94 435.247 674.859C442.589 669.998 454.042 671.382 462.689 671.385L497.859 671.412L548.386 671.42C559.302 671.417 571.186 670.422 581.892 672.739C591.481 674.815 610.547 703.606 615.959 712.53C616.301 713.096 616.636 713.665 616.964 714.239L617.068 806.047C617.067 813.343 617.112 820.678 617.058 827.94C616.974 839.116 618.51 850.529 609.516 859.06C607.428 861.041 605.752 862.206 603.067 863.179C600.441 864.403 598.015 864.736 595.155 864.884C582.625 865.534 460.563 865.812 456.137 864.211C455.57 864.006 455.443 863.924 454.849 863.64C446.882 860.641 441.499 849.861 437.416 842.694C432.772 834.541 427.138 825.729 423.266 817.254Z"/><path fill="#171836" d="M423.266 817.254C421.472 814.342 422.113 798.28 422.125 793.763L422.202 757.582L422.123 720.012C422.113 704.288 420.02 684.94 435.247 674.859C442.589 669.998 454.042 671.382 462.689 671.385L497.859 671.412L548.386 671.42C559.302 671.417 571.186 670.422 581.892 672.739C591.481 674.815 610.547 703.606 615.959 712.53C616.301 713.096 616.636 713.665 616.964 714.239L617.068 806.047C617.067 813.343 617.112 820.678 617.058 827.94C616.974 839.116 618.51 850.529 609.516 859.06C607.428 861.041 605.752 862.206 603.067 863.179L602.871 862.749C604.777 860.817 607.176 860.198 609.466 857.498C612.578 854.014 614.857 849.304 615.462 844.639C616.267 838.436 615.997 831.834 615.983 825.563L615.908 793.768L615.971 744.46C615.968 738.782 616.53 716.044 614.513 712.906C608.609 703.721 596.175 684.284 588.116 677.586C585.076 675.066 581.344 673.525 577.411 673.167C571.87 672.636 559.223 673.01 553.304 673.016L506.309 673.008L464.624 672.998C453.72 672.996 439.598 670.583 431.654 679.757C421.441 691.551 423.766 703.773 423.754 718.673L423.737 756.716L423.738 793.904C423.739 800.087 423.039 812.755 424.913 818.011L423.266 817.254Z"/><path fill="#070815" d="M423.266 817.254L424.913 818.011C430.848 831.025 440.385 844.835 447.835 857.144C449.438 859.793 454.734 862.634 454.888 863.575L454.849 863.64C446.882 860.641 441.499 849.861 437.416 842.694C432.772 834.541 427.138 825.729 423.266 817.254Z"/><path fill="#FEFEFE" d="M454.608 719.565C458.477 714.795 460.395 714.27 466.435 714.255C493.776 714.188 521.091 714.174 548.421 714.986C562.281 715.398 576.227 714.115 590.085 714.293C595.515 714.327 599.71 714.867 602.196 720.571L601.602 720.987C602.404 730.81 601.937 745.416 601.932 755.592L601.896 818.265C601.891 824.005 601.429 839.541 601.83 844.468C602.192 845.896 602.13 845.325 601.829 846.851C600.21 849.087 598.677 850.376 595.962 851.034C590.264 852.416 583.928 852.017 578.105 852.013C565.18 852.003 552.27 851.949 539.353 851.956L490.799 852.006C480.735 852.014 469.547 852.684 459.729 850.888C452.384 849.544 453.322 832.639 454.923 827.673C455.538 815.426 455.088 798.632 455.067 786.1C455.041 771.366 455.529 753.778 454.93 739.257C454.248 734.327 454.506 724.655 454.608 719.565Z"/><path fill="#1E2551" d="M601.83 844.468C602.192 845.896 602.13 845.325 601.829 846.851C600.21 849.087 598.677 850.376 595.962 851.034C590.264 852.416 583.928 852.017 578.105 852.013C565.18 852.003 552.27 851.949 539.353 851.956L490.799 852.006C480.735 852.014 469.547 852.684 459.729 850.888C452.384 849.544 453.322 832.639 454.923 827.673C454.938 831.229 454.884 834.946 454.913 838.491C454.984 847.228 456.771 850.122 465.495 850.159C506.946 850.339 548.367 850.229 589.816 850.305C596.082 850.316 598.577 850.258 601.83 844.468Z"/><path fill="#1E2551" d="M454.608 719.565C458.477 714.795 460.395 714.27 466.435 714.255C493.776 714.188 521.091 714.174 548.421 714.986C562.281 715.398 576.227 714.115 590.085 714.293C595.515 714.327 599.71 714.867 602.196 720.571L601.602 720.987C600.152 718.925 598.4 716.281 595.698 715.983C589.996 715.355 583.546 715.525 577.799 715.522L547.477 715.509L493.847 715.505C485.938 715.507 464.994 714.674 458.293 716.788C452.984 721.951 455.2 732.13 454.93 739.257C454.248 734.327 454.506 724.655 454.608 719.565Z"/><path fill="#394067" d="M552.08 737.582C552.932 736.572 552.526 736.63 554.002 736.575C559.432 736.371 564.975 736.496 570.427 736.417L570.343 795.706C570.337 806.094 570.093 817.721 570.46 828.026L550.66 828.048L550.052 827.517C542.313 820.711 535.436 812.512 528.394 804.973C525.169 801.52 521.858 797.385 517.946 794.716C516.819 793.946 515.698 793.465 514.302 793.529C512.313 793.619 510.474 794.699 509.219 796.212C505.888 800.229 507.507 821.78 507.526 828.086C501.522 827.99 495.517 827.98 489.513 828.057L489.514 736.707C494.269 736.725 499.817 736.606 504.508 736.832C511.974 744.583 519.353 752.418 526.642 760.335C530.609 764.594 537.781 774.324 543.786 774.551C548.543 774.731 551.123 771.118 552.28 766.876C551.585 764.293 551.977 741.392 552.08 737.582Z"/><path fill="#171836" d="M552.08 737.582C552.932 736.572 552.526 736.63 554.002 736.575C559.432 736.371 564.975 736.496 570.427 736.417L570.343 795.706C570.337 806.094 570.093 817.721 570.46 828.026L550.66 828.048L550.052 827.517C542.313 820.711 535.436 812.512 528.394 804.973C525.169 801.52 521.858 797.385 517.946 794.716C516.819 793.946 515.698 793.465 514.302 793.529C512.313 793.619 510.474 794.699 509.219 796.212C505.888 800.229 507.507 821.78 507.526 828.086C501.522 827.99 495.517 827.98 489.513 828.057L489.514 736.707C494.269 736.725 499.817 736.606 504.508 736.832C511.974 744.583 519.353 752.418 526.642 760.335C530.609 764.594 537.781 774.324 543.786 774.551C548.543 774.731 551.123 771.118 552.28 766.876C553.011 769.136 552.906 770.639 551.186 772.406C541.817 782.03 533.815 769.515 527.825 763.377C519.488 754.834 512.184 745.916 503.582 738.007L490.754 737.923C490.768 766.146 491.693 799.822 490.427 827.55C495.395 827.437 501.471 827.473 506.309 826.811L506.272 826.32C505.767 818.899 504.515 799.746 509.481 794.184C516.404 786.432 529.868 804.703 534.511 809.713C539.965 815.575 545.541 821.321 551.236 826.949C557.379 827.266 563.321 827.149 569.47 827.011C568.656 821.53 569.03 803.475 569.033 796.87L569.039 737.87C563.574 738.002 557.47 738.198 552.08 737.582Z"/><path fill="#FEFEFE" d="M557.213 684.929C561.416 683.957 573.806 684.08 578.457 684.378C581.386 686.897 587.987 692.893 587.267 697.167C587.344 697.427 588.881 700.563 589.087 700.99L436.683 700.977C438.059 696.718 442.998 685.389 448.03 685.171C457.411 684.765 467.111 685.025 476.525 685.036L528.587 685.067C537.522 685.069 548.446 685.343 557.213 684.929Z"/><path fill="#171836" d="M557.213 684.929C561.416 683.957 573.806 684.08 578.457 684.378C581.386 686.897 587.987 692.893 587.267 697.167C584.263 692.594 581.897 688.408 577.463 685.106C571.234 684.812 563.553 684.968 557.213 684.929Z"/><path fill="#5E6698" d="M664.551 698.823L665.604 699.759C672.494 700.573 678.557 706.921 684.917 710.212C692.402 714.085 695.856 715.547 704.546 714.719C714.986 713.724 725.378 711.601 735.456 708.641C740.439 707.177 745.224 705.092 750.219 703.594L750.763 703.953C746.866 706.662 744.009 705.631 740.648 707.741C742.253 707.817 743.429 707.504 744.315 708.716C746.521 711.732 744.925 715.427 744.893 719.186C747.141 721.573 751.128 722.585 753.516 724.937C763.378 734.651 750.484 746.947 744.05 753.929C740.16 752.119 738.913 752.731 734.937 753.867L734.757 754.23C730.644 754.824 721.639 756.769 717.768 757.636C716.758 757.862 707.579 764.036 708.343 765.733C708.423 765.912 707.367 768.12 706.947 768.43C700.024 773.531 692.754 778.894 685.761 783.842C684.695 784.595 678.796 785.909 677.179 786.894C673.113 789.371 676.277 793.201 675.573 796.237L674.947 796.063C674.616 794.368 675.037 779.308 675.017 776.096C674.862 751.494 675.368 721.494 664.551 698.823Z"/><path fill="#BFC0D6" d="M746.534 658.59C752.026 658.387 757.835 660.905 752.948 666.897C748.296 672.6 742.713 673.755 735.944 674.726C732.961 674.898 729.397 674.811 728.113 671.786C728.484 665.176 740.763 659.77 746.534 658.59Z"/><path fill="#BFC0D6" d="M692.251 676.617C694.592 676.427 699.702 675.922 701.459 676.937C711.95 682.996 703.802 687.949 696.994 689.477C680.314 692.157 675.182 679.769 692.251 676.617Z"/><path fill="#BFC0D6" d="M764.243 643.794C771.434 647.054 773.284 656.209 766.981 660.942C756.822 661.801 759.463 648.974 764.243 643.794Z"/><path fill="#BFC0D6" d="M812.9 617.731C819.119 620.486 818.909 623.781 815.398 628.872C813.973 629.53 814.084 629.526 812.522 629.469C809.415 626.766 811.212 620.858 812.9 617.731Z"/><path fill="#BFC0D6" d="M790.782 637.852C797.651 638.01 795.653 643.492 793.353 647.494C787.005 649.688 789.402 640.781 790.782 637.852Z"/><path fill="#5E6698" d="M814.227 664.332L815.059 664.7C805.212 673.017 799.105 675.077 789.854 681.724C788.743 681.646 789.256 681.789 788.308 681.327C796.322 675.578 806.04 672.133 814.227 664.332Z"/><path fill="#F38648" d="M271.997 600.914C274.693 596.078 276.397 592.251 281.302 589.029C290 583.315 302.689 584.413 312.323 586.521L314.455 587.2C316.718 588.624 321.233 591.383 323.142 593.02C326.302 596.85 327.138 598.422 329.044 603.182C340.259 602.797 346.683 602.128 357.038 607.05C377.773 623.715 366.746 656.978 340.234 658.364C335.397 658.617 331.801 658.132 327.044 657.871C327.338 666.299 327.289 674.856 321.059 681.254C310.876 691.714 289.892 690.76 279.915 680.395C273.313 673.537 272.217 667.88 271.834 659.05C251.867 658.132 238.345 651.559 235.528 629.979C235.517 615.89 239.007 608.819 251.859 602.405C256.202 601.377 257.761 600.922 262.304 600.42C265.943 600.451 268.386 600.542 271.997 600.914Z"/><path fill="#FEFEFE" d="M334.875 614.077C338.236 613.928 341.325 613.691 344.584 614.651C355.132 617.761 357.058 629.565 353.083 638.604C351.125 643.055 348.453 645.686 344.044 647.736C340.639 648.499 336.311 649.786 333.686 647.008C334.289 643.857 338.276 639.898 339.376 635.666C340.699 630.122 332.425 627.408 330.368 622.409C328.582 618.067 330.942 615.669 334.875 614.077Z"/><path fill="#FEFEFE" d="M260.889 614.173C262.98 614.132 264.716 613.848 266.432 614.928C269.567 621.544 255.395 627.413 270.167 646.998C266.908 648.186 266.244 648.457 262.731 648.789C244.423 647.457 242.998 616.529 260.889 614.173Z"/><path fill="#EAB5BD" d="M297.557 623.031C312.818 621.663 318.671 641.451 305.129 648.263C288.796 650.314 284.55 629.236 297.557 623.031Z"/><path fill="#FEFEFE" d="M287.515 603.445C292.562 592.99 314.55 596.55 311.802 606.905C304.594 614.76 286.062 614.449 287.515 603.445Z"/><path fill="#E2E1E6" d="M287.515 603.445C292.562 592.99 314.55 596.55 311.802 606.905C306.043 595.233 297.39 599.102 287.515 603.445Z"/><path fill="#E2E1E6" d="M300.748 663.193C314.212 661.624 313.781 676.956 298.88 677.355C295.027 676.983 288.3 676.142 287.745 671.471C286.937 664.679 296.676 663.664 300.748 663.193Z"/><path fill="#394067" d="M197.574 538.037C199.919 542.194 200.561 547.87 202.126 552.427C207.372 567.697 213.453 583.268 224.969 595.004C229.573 599.696 235.254 603.702 239.62 608.629C239.625 608.635 239.426 609.967 239.36 610.139C236.477 617.604 233.555 620.721 235.108 629.341C235.248 629.554 235.388 629.766 235.528 629.979C238.345 651.559 251.867 658.132 271.834 659.05C272.217 667.88 273.313 673.537 279.915 680.395C289.892 690.76 310.876 691.714 321.059 681.254C327.289 674.856 327.338 666.299 327.044 657.871C331.801 658.132 335.397 658.617 340.234 658.364C366.746 656.978 377.773 623.715 357.038 607.05C360.664 607.349 360.478 607.053 363.239 610.297C363.831 610.995 364.417 611.698 364.997 612.406C367.403 612.15 372.137 607.3 372.563 604.625C373.884 605.176 373.891 605.881 374.549 607.199C380.329 618.766 380.633 642.249 376.133 654.064C370.53 668.773 350.667 674.03 336.017 675.635C335.096 708.013 298.651 707.877 277.003 696.648C274.841 695.526 271.662 690.354 268.857 689.451C262.34 687.052 255.611 685.365 249.05 683.076C231.727 676.92 216.134 666.695 203.584 653.26C200.179 649.564 191.052 638.114 189.108 633.455C187.909 630.663 186.297 626.494 184.608 624.148L184.189 625.16C183.855 624.47 183.951 624.042 183.833 623.274C182.556 614.996 186.73 565.116 191.52 562.113C192.638 560.065 196.42 542.016 197.574 538.037Z"/><path fill="#171836" d="M184.189 625.16C183.855 624.47 183.951 624.042 183.833 623.274C182.556 614.996 186.73 565.116 191.52 562.113C188.611 578.392 185.87 592.404 185.268 609.026C185.094 613.819 184.204 619.354 184.608 624.148L184.189 625.16Z"/><path fill="#070815" d="M383.021 136.82C384.013 132.723 401.688 121.513 406.203 118.779C505.232 58.8109 644.137 94.1107 703.62 193.18C716.443 214.536 724.87 236.839 731.656 260.756C739.184 289.516 745.597 315.953 756.835 343.595C769.396 374.491 785.21 403.163 800.95 432.522C820.279 470.728 836.394 512.166 845.318 554.108C846.616 560.206 850.143 575.241 848.847 580.461C847.908 576.244 847.898 571.881 847.135 568.186C845.144 558.537 842.086 540.182 838.334 531.114C835.474 521.736 831.193 505.404 827.276 497.077C810.049 446.478 781.107 402.974 759.754 354.576C753.633 338.635 745.949 321.283 741.68 304.77C729.489 257.614 719.815 213.778 688.871 174.421C652.58 128.76 599.721 99.2851 541.801 92.4135C482.07 85.2959 430.123 99.7624 383.021 136.82Z"/><path fill="#070815" d="M651.88 170.023C653.793 171.199 657.713 176.283 659.333 178.365C672.568 195.219 682.069 214.694 687.206 235.498C691.02 251.424 694.006 277.346 686.442 292.496C686.235 292.329 685.603 291.927 685.735 291.513C696.548 257.634 683.844 219.578 666.521 190.098C664.294 186.307 652.035 171.089 651.88 170.023Z"/><path fill="#171836" d="M262.678 385.008C262.569 384.72 262.158 383.523 262.255 383.323C273.964 359.086 286.714 335.605 292.604 308.954C293.463 305.067 295.293 297.362 298.214 294.643C289.689 329.915 279.215 353.182 262.678 385.008Z"/><path fill="#070815" d="M231.261 491.375C232.19 493.364 231.806 494.131 230.834 496.618C227.765 504.468 226.088 511.909 226.776 520.33C227.151 524.921 230.224 531.363 229.383 534.592C222.14 518.419 224.809 507.334 231.261 491.375Z"/><path fill="#070815" d="M344.613 256.324C345.938 263.7 345.178 268.77 345.59 276.165C345.794 279.828 349.119 288.61 347.771 291.087C343.046 279.395 343.904 268.557 344.613 256.324Z"/><path fill="#070815" d="M346.165 175.024L345.825 173.806C348.032 169.607 352.572 163.271 356.678 160.933L357.488 161.194C353.495 165.878 349.925 170.145 346.165 175.024Z"/><path fill="#5E6698" d="M251.859 602.405L251.814 601.79C254.733 599.804 262.448 598.25 265.736 599.417L265.627 599.755L262.304 600.42C257.761 600.922 256.202 601.377 251.859 602.405Z"/></svg>